<?xml version="1.0" encoding="utf-8" standalone="no"?>
<!DOCTYPE svg PUBLIC "-//W3C//DTD SVG 1.1//EN"
  "http://www.w3.org/Graphics/SVG/1.1/DTD/svg11.dtd">
<!-- Created with matplotlib (https://matplotlib.org/) -->
<svg height="208.8pt" version="1.1" viewBox="0 0 280.8 208.8" width="280.8pt" xmlns="http://www.w3.org/2000/svg" xmlns:xlink="http://www.w3.org/1999/xlink">
 <defs>
  <style type="text/css">
*{stroke-linecap:butt;stroke-linejoin:round;}
  </style>
 </defs>
 <g id="figure_1">
  <g id="patch_1">
   <path d="M 0 208.8 
L 280.8 208.8 
L 280.8 0 
L 0 0 
z
" style="fill:none;"/>
  </g>
  <g id="axes_1">
   <g id="patch_2">
    <path d="M 41.11 171.969219 
L 273.6 171.969219 
L 273.6 7.2 
L 41.11 7.2 
z
" style="fill:none;"/>
   </g>
   <g id="PathCollection_1">
    <defs>
     <path d="M 0 1.5 
C 0.397805 1.5 0.77937 1.341951 1.06066 1.06066 
C 1.341951 0.77937 1.5 0.397805 1.5 0 
C 1.5 -0.397805 1.341951 -0.77937 1.06066 -1.06066 
C 0.77937 -1.341951 0.397805 -1.5 0 -1.5 
C -0.397805 -1.5 -0.77937 -1.341951 -1.06066 -1.06066 
C -1.341951 -0.77937 -1.5 -0.397805 -1.5 0 
C -1.5 0.397805 -1.341951 0.77937 -1.06066 1.06066 
C -0.77937 1.341951 -0.397805 1.5 0 1.5 
z
" id="m0c1f45b157" style="stroke:#003fff;stroke-opacity:0.8;"/>
    </defs>
    <g clip-path="url(#p8db1e42aba)">
     <use style="fill:#003fff;fill-opacity:0.8;stroke:#003fff;stroke-opacity:0.8;" x="116.818708" xlink:href="#m0c1f45b157" y="119.993658"/>
     <use style="fill:#003fff;fill-opacity:0.8;stroke:#003fff;stroke-opacity:0.8;" x="136.710995" xlink:href="#m0c1f45b157" y="104.691862"/>
     <use style="fill:#003fff;fill-opacity:0.8;stroke:#003fff;stroke-opacity:0.8;" x="192.505274" xlink:href="#m0c1f45b157" y="69.064679"/>
     <use style="fill:#003fff;fill-opacity:0.8;stroke:#003fff;stroke-opacity:0.8;" x="252.20317" xlink:href="#m0c1f45b157" y="36.005109"/>
    </g>
   </g>
   <g id="PolyCollection_1">
    <path clip-path="url(#p8db1e42aba)" d="M 41.11 161.41908 
L 41.11 169.306347 
L 43.458384 167.748962 
L 45.806768 166.191578 
L 48.155152 164.634193 
L 50.503535 163.076808 
L 52.851919 161.519423 
L 55.200303 159.962038 
L 57.548687 158.404653 
L 59.897071 156.847268 
L 62.245455 155.289883 
L 64.593838 153.732498 
L 66.942222 152.175114 
L 69.290606 150.617729 
L 71.63899 149.060344 
L 73.987374 147.502959 
L 76.335758 145.945574 
L 78.684141 144.388189 
L 81.032525 142.830804 
L 83.380909 141.273419 
L 85.729293 139.716035 
L 88.077677 138.15865 
L 90.426061 136.601265 
L 92.774444 135.04388 
L 95.122828 133.486495 
L 97.471212 131.996277 
L 99.819596 130.539409 
L 102.16798 129.08254 
L 104.516364 127.625672 
L 106.864747 126.144902 
L 109.213131 124.569381 
L 111.561515 122.99386 
L 113.909899 121.418339 
L 116.258283 119.842818 
L 118.606667 118.267296 
L 120.955051 116.776723 
L 123.303434 115.116254 
L 125.651818 113.641191 
L 128.000202 112.194689 
L 130.348586 110.748186 
L 132.69697 109.301684 
L 135.045354 107.729071 
L 137.393737 106.14886 
L 139.742121 104.568648 
L 142.090505 103.110626 
L 144.438889 101.676792 
L 146.787273 100.242957 
L 149.135657 98.809122 
L 151.48404 97.375287 
L 153.832424 95.941452 
L 156.180808 94.507617 
L 158.529192 93.073783 
L 160.877576 91.639948 
L 163.22596 90.206113 
L 165.574343 88.772278 
L 167.922727 87.308143 
L 170.271111 85.834714 
L 172.619495 84.361285 
L 174.967879 82.887856 
L 177.316263 81.414427 
L 179.664646 79.940998 
L 182.01303 78.480034 
L 184.361414 77.031406 
L 186.709798 75.582779 
L 189.058182 74.134151 
L 191.406566 72.685524 
L 193.754949 71.236896 
L 196.103333 69.788269 
L 198.451717 68.339642 
L 200.800101 66.910313 
L 203.148485 65.482477 
L 205.496869 64.054641 
L 207.845253 62.626805 
L 210.193636 61.198969 
L 212.54202 59.771134 
L 214.890404 58.343298 
L 217.238788 56.915462 
L 219.587172 55.487626 
L 221.935556 54.05979 
L 224.283939 52.631954 
L 226.632323 51.212879 
L 228.980707 49.816223 
L 231.329091 48.419567 
L 233.677475 47.022911 
L 236.025859 45.626255 
L 238.374242 44.209081 
L 240.722626 42.762579 
L 243.07101 41.316077 
L 245.419394 39.869575 
L 247.767778 38.461346 
L 250.116162 37.154224 
L 252.464545 35.72039 
L 254.812929 34.286555 
L 257.161313 32.85272 
L 259.509697 31.418885 
L 261.858081 29.98505 
L 264.206465 28.551215 
L 266.554848 27.103472 
L 268.903232 25.683546 
L 271.251616 24.249711 
L 273.6 22.815876 
L 273.6 14.91935 
L 273.6 14.91935 
L 271.251616 16.474208 
L 268.903232 18.029066 
L 266.554848 19.583924 
L 264.206465 21.138783 
L 261.858081 22.693641 
L 259.509697 24.248499 
L 257.161313 25.803357 
L 254.812929 27.358215 
L 252.464545 28.913074 
L 250.116162 30.467932 
L 247.767778 32.02279 
L 245.419394 33.577648 
L 243.07101 35.132506 
L 240.722626 36.687365 
L 238.374242 38.242223 
L 236.025859 39.797081 
L 233.677475 41.360183 
L 231.329091 42.940395 
L 228.980707 44.520606 
L 226.632323 46.100818 
L 224.283939 47.68103 
L 221.935556 49.261241 
L 219.587172 50.841453 
L 217.238788 52.421664 
L 214.890404 54.001876 
L 212.54202 55.582088 
L 210.193636 57.162299 
L 207.845253 58.732021 
L 205.496869 60.289406 
L 203.148485 61.846791 
L 200.800101 63.404175 
L 198.451717 64.96156 
L 196.103333 66.518945 
L 193.754949 68.07633 
L 191.406566 69.633715 
L 189.058182 71.00166 
L 186.709798 72.577182 
L 184.361414 74.152703 
L 182.01303 75.728224 
L 179.664646 77.264003 
L 177.316263 78.763553 
L 174.967879 80.263103 
L 172.619495 81.778252 
L 170.271111 83.33311 
L 167.922727 84.887969 
L 165.574343 86.283682 
L 163.22596 87.760852 
L 160.877576 89.260402 
L 158.529192 90.759952 
L 156.180808 92.259502 
L 153.832424 93.66823 
L 151.48404 95.054996 
L 149.135657 96.441762 
L 146.787273 97.828528 
L 144.438889 99.215294 
L 142.090505 100.602059 
L 139.742121 102.360221 
L 137.393737 103.821246 
L 135.045354 105.226071 
L 132.69697 106.630896 
L 130.348586 108.035721 
L 128.000202 109.440547 
L 125.651818 110.845372 
L 123.303434 112.250197 
L 120.955051 113.655022 
L 118.606667 115.059847 
L 116.258283 116.464673 
L 113.909899 117.869498 
L 111.561515 119.274323 
L 109.213131 120.679148 
L 106.864747 122.083973 
L 104.516364 123.488799 
L 102.16798 124.893624 
L 99.819596 126.298449 
L 97.471212 127.703274 
L 95.122828 129.1081 
L 92.774444 130.512925 
L 90.426061 131.91775 
L 88.077677 133.322575 
L 85.729293 134.7274 
L 83.380909 136.132226 
L 81.032525 137.537051 
L 78.684141 138.941876 
L 76.335758 140.346701 
L 73.987374 141.751527 
L 71.63899 143.156352 
L 69.290606 144.561177 
L 66.942222 145.966002 
L 64.593838 147.370827 
L 62.245455 148.775653 
L 59.897071 150.180478 
L 57.548687 151.585303 
L 55.200303 152.990128 
L 52.851919 154.394953 
L 50.503535 155.799779 
L 48.155152 157.204604 
L 45.806768 158.609429 
L 43.458384 160.014254 
L 41.11 161.41908 
z
" style="fill:#003fff;fill-opacity:0.15;"/>
   </g>
   <g id="matplotlib.axis_1">
    <g id="xtick_1">
     <g id="line2d_1">
      <defs>
       <path d="M 0 0 
L 0 3.5 
" id="mb4cf0b577d" style="stroke:#000000;stroke-width:0.8;"/>
      </defs>
      <g>
       <use style="stroke:#000000;stroke-width:0.8;" x="41.11" xlink:href="#mb4cf0b577d" y="171.969219"/>
      </g>
     </g>
     <g id="text_1">
      <!-- 0 -->
      <defs>
       <path d="M 4.15625 35.296875 
Q 4.15625 48 6.765625 55.734375 
Q 9.375 63.484375 14.515625 67.671875 
Q 19.671875 71.875 27.484375 71.875 
Q 33.25 71.875 37.59375 69.546875 
Q 41.9375 67.234375 44.765625 62.859375 
Q 47.609375 58.5 49.21875 52.21875 
Q 50.828125 45.953125 50.828125 35.296875 
Q 50.828125 22.703125 48.234375 14.96875 
Q 45.65625 7.234375 40.5 3 
Q 35.359375 -1.21875 27.484375 -1.21875 
Q 17.140625 -1.21875 11.234375 6.203125 
Q 4.15625 15.140625 4.15625 35.296875 
z
M 13.1875 35.296875 
Q 13.1875 17.671875 17.3125 11.828125 
Q 21.4375 6 27.484375 6 
Q 33.546875 6 37.671875 11.859375 
Q 41.796875 17.71875 41.796875 35.296875 
Q 41.796875 52.984375 37.671875 58.78125 
Q 33.546875 64.59375 27.390625 64.59375 
Q 21.34375 64.59375 17.71875 59.46875 
Q 13.1875 52.9375 13.1875 35.296875 
z
" id="ArialMT-48"/>
      </defs>
      <g transform="translate(38.607578 185.41125)scale(0.09 -0.09)">
       <use xlink:href="#ArialMT-48"/>
      </g>
     </g>
    </g>
    <g id="xtick_2">
     <g id="line2d_2">
      <g>
       <use style="stroke:#000000;stroke-width:0.8;" x="96.464762" xlink:href="#mb4cf0b577d" y="171.969219"/>
      </g>
     </g>
     <g id="text_2">
      <!-- 5 -->
      <defs>
       <path d="M 4.15625 18.75 
L 13.375 19.53125 
Q 14.40625 12.796875 18.140625 9.390625 
Q 21.875 6 27.15625 6 
Q 33.5 6 37.890625 10.78125 
Q 42.28125 15.578125 42.28125 23.484375 
Q 42.28125 31 38.0625 35.34375 
Q 33.84375 39.703125 27 39.703125 
Q 22.75 39.703125 19.328125 37.765625 
Q 15.921875 35.84375 13.96875 32.765625 
L 5.71875 33.84375 
L 12.640625 70.609375 
L 48.25 70.609375 
L 48.25 62.203125 
L 19.671875 62.203125 
L 15.828125 42.96875 
Q 22.265625 47.46875 29.34375 47.46875 
Q 38.71875 47.46875 45.15625 40.96875 
Q 51.609375 34.46875 51.609375 24.265625 
Q 51.609375 14.546875 45.953125 7.46875 
Q 39.0625 -1.21875 27.15625 -1.21875 
Q 17.390625 -1.21875 11.203125 4.25 
Q 5.03125 9.71875 4.15625 18.75 
z
" id="ArialMT-53"/>
      </defs>
      <g transform="translate(93.96234 185.41125)scale(0.09 -0.09)">
       <use xlink:href="#ArialMT-53"/>
      </g>
     </g>
    </g>
    <g id="xtick_3">
     <g id="line2d_3">
      <g>
       <use style="stroke:#000000;stroke-width:0.8;" x="151.819524" xlink:href="#mb4cf0b577d" y="171.969219"/>
      </g>
     </g>
     <g id="text_3">
      <!-- 10 -->
      <defs>
       <path d="M 37.25 0 
L 28.46875 0 
L 28.46875 56 
Q 25.296875 52.984375 20.140625 49.953125 
Q 14.984375 46.921875 10.890625 45.40625 
L 10.890625 53.90625 
Q 18.265625 57.375 23.78125 62.296875 
Q 29.296875 67.234375 31.59375 71.875 
L 37.25 71.875 
z
" id="ArialMT-49"/>
      </defs>
      <g transform="translate(146.81468 185.41125)scale(0.09 -0.09)">
       <use xlink:href="#ArialMT-49"/>
       <use x="55.615234" xlink:href="#ArialMT-48"/>
      </g>
     </g>
    </g>
    <g id="xtick_4">
     <g id="line2d_4">
      <g>
       <use style="stroke:#000000;stroke-width:0.8;" x="207.174286" xlink:href="#mb4cf0b577d" y="171.969219"/>
      </g>
     </g>
     <g id="text_4">
      <!-- 15 -->
      <g transform="translate(202.169442 185.41125)scale(0.09 -0.09)">
       <use xlink:href="#ArialMT-49"/>
       <use x="55.615234" xlink:href="#ArialMT-53"/>
      </g>
     </g>
    </g>
    <g id="xtick_5">
     <g id="line2d_5">
      <g>
       <use style="stroke:#000000;stroke-width:0.8;" x="262.529048" xlink:href="#mb4cf0b577d" y="171.969219"/>
      </g>
     </g>
     <g id="text_5">
      <!-- 20 -->
      <defs>
       <path d="M 50.34375 8.453125 
L 50.34375 0 
L 3.03125 0 
Q 2.9375 3.171875 4.046875 6.109375 
Q 5.859375 10.9375 9.828125 15.625 
Q 13.8125 20.3125 21.34375 26.46875 
Q 33.015625 36.03125 37.109375 41.625 
Q 41.21875 47.21875 41.21875 52.203125 
Q 41.21875 57.421875 37.46875 61 
Q 33.734375 64.59375 27.734375 64.59375 
Q 21.390625 64.59375 17.578125 60.78125 
Q 13.765625 56.984375 13.71875 50.25 
L 4.6875 51.171875 
Q 5.609375 61.28125 11.65625 66.578125 
Q 17.71875 71.875 27.9375 71.875 
Q 38.234375 71.875 44.234375 66.15625 
Q 50.25 60.453125 50.25 52 
Q 50.25 47.703125 48.484375 43.546875 
Q 46.734375 39.40625 42.65625 34.8125 
Q 38.578125 30.21875 29.109375 22.21875 
Q 21.1875 15.578125 18.9375 13.203125 
Q 16.703125 10.84375 15.234375 8.453125 
z
" id="ArialMT-50"/>
      </defs>
      <g transform="translate(257.524204 185.41125)scale(0.09 -0.09)">
       <use xlink:href="#ArialMT-50"/>
       <use x="55.615234" xlink:href="#ArialMT-48"/>
      </g>
     </g>
    </g>
    <g id="text_6">
     <!-- Channel Length,  $L_{ch}$  [$\mu$m] -->
     <defs>
      <path d="M 58.796875 25.09375 
L 68.265625 22.703125 
Q 65.28125 11.03125 57.546875 4.90625 
Q 49.8125 -1.21875 38.625 -1.21875 
Q 27.046875 -1.21875 19.796875 3.484375 
Q 12.546875 8.203125 8.765625 17.140625 
Q 4.984375 26.078125 4.984375 36.328125 
Q 4.984375 47.515625 9.25 55.828125 
Q 13.53125 64.15625 21.40625 68.46875 
Q 29.296875 72.796875 38.765625 72.796875 
Q 49.515625 72.796875 56.828125 67.328125 
Q 64.15625 61.859375 67.046875 51.953125 
L 57.71875 49.75 
Q 55.21875 57.5625 50.484375 61.125 
Q 45.75 64.703125 38.578125 64.703125 
Q 30.328125 64.703125 24.78125 60.734375 
Q 19.234375 56.78125 16.984375 50.109375 
Q 14.75 43.453125 14.75 36.375 
Q 14.75 27.25 17.40625 20.4375 
Q 20.0625 13.625 25.671875 10.25 
Q 31.296875 6.890625 37.84375 6.890625 
Q 45.796875 6.890625 51.3125 11.46875 
Q 56.84375 16.0625 58.796875 25.09375 
z
" id="ArialMT-67"/>
      <path d="M 6.59375 0 
L 6.59375 71.578125 
L 15.375 71.578125 
L 15.375 45.90625 
Q 21.53125 53.03125 30.90625 53.03125 
Q 36.671875 53.03125 40.921875 50.75 
Q 45.171875 48.484375 47 44.484375 
Q 48.828125 40.484375 48.828125 32.859375 
L 48.828125 0 
L 40.046875 0 
L 40.046875 32.859375 
Q 40.046875 39.453125 37.1875 42.453125 
Q 34.328125 45.453125 29.109375 45.453125 
Q 25.203125 45.453125 21.75 43.421875 
Q 18.3125 41.40625 16.84375 37.9375 
Q 15.375 34.46875 15.375 28.375 
L 15.375 0 
z
" id="ArialMT-104"/>
      <path d="M 40.4375 6.390625 
Q 35.546875 2.25 31.03125 0.53125 
Q 26.515625 -1.171875 21.34375 -1.171875 
Q 12.796875 -1.171875 8.203125 3 
Q 3.609375 7.171875 3.609375 13.671875 
Q 3.609375 17.484375 5.34375 20.625 
Q 7.078125 23.78125 9.890625 25.6875 
Q 12.703125 27.59375 16.21875 28.5625 
Q 18.796875 29.25 24.03125 29.890625 
Q 34.671875 31.15625 39.703125 32.90625 
Q 39.75 34.71875 39.75 35.203125 
Q 39.75 40.578125 37.25 42.78125 
Q 33.890625 45.75 27.25 45.75 
Q 21.046875 45.75 18.09375 43.578125 
Q 15.140625 41.40625 13.71875 35.890625 
L 5.125 37.0625 
Q 6.296875 42.578125 8.984375 45.96875 
Q 11.671875 49.359375 16.75 51.1875 
Q 21.828125 53.03125 28.515625 53.03125 
Q 35.15625 53.03125 39.296875 51.46875 
Q 43.453125 49.90625 45.40625 47.53125 
Q 47.359375 45.171875 48.140625 41.546875 
Q 48.578125 39.3125 48.578125 33.453125 
L 48.578125 21.734375 
Q 48.578125 9.46875 49.140625 6.21875 
Q 49.703125 2.984375 51.375 0 
L 42.1875 0 
Q 40.828125 2.734375 40.4375 6.390625 
z
M 39.703125 26.03125 
Q 34.90625 24.078125 25.34375 22.703125 
Q 19.921875 21.921875 17.671875 20.9375 
Q 15.4375 19.96875 14.203125 18.09375 
Q 12.984375 16.21875 12.984375 13.921875 
Q 12.984375 10.40625 15.640625 8.0625 
Q 18.3125 5.71875 23.4375 5.71875 
Q 28.515625 5.71875 32.46875 7.9375 
Q 36.421875 10.15625 38.28125 14.015625 
Q 39.703125 17 39.703125 22.796875 
z
" id="ArialMT-97"/>
      <path d="M 6.59375 0 
L 6.59375 51.859375 
L 14.5 51.859375 
L 14.5 44.484375 
Q 20.21875 53.03125 31 53.03125 
Q 35.6875 53.03125 39.625 51.34375 
Q 43.5625 49.65625 45.515625 46.921875 
Q 47.46875 44.1875 48.25 40.4375 
Q 48.734375 37.984375 48.734375 31.890625 
L 48.734375 0 
L 39.9375 0 
L 39.9375 31.546875 
Q 39.9375 36.921875 38.90625 39.578125 
Q 37.890625 42.234375 35.28125 43.8125 
Q 32.671875 45.40625 29.15625 45.40625 
Q 23.53125 45.40625 19.453125 41.84375 
Q 15.375 38.28125 15.375 28.328125 
L 15.375 0 
z
" id="ArialMT-110"/>
      <path d="M 42.09375 16.703125 
L 51.171875 15.578125 
Q 49.03125 7.625 43.21875 3.21875 
Q 37.40625 -1.171875 28.375 -1.171875 
Q 17 -1.171875 10.328125 5.828125 
Q 3.65625 12.84375 3.65625 25.484375 
Q 3.65625 38.578125 10.390625 45.796875 
Q 17.140625 53.03125 27.875 53.03125 
Q 38.28125 53.03125 44.875 45.953125 
Q 51.46875 38.875 51.46875 26.03125 
Q 51.46875 25.25 51.421875 23.6875 
L 12.75 23.6875 
Q 13.234375 15.140625 17.578125 10.59375 
Q 21.921875 6.0625 28.421875 6.0625 
Q 33.25 6.0625 36.671875 8.59375 
Q 40.09375 11.140625 42.09375 16.703125 
z
M 13.234375 30.90625 
L 42.1875 30.90625 
Q 41.609375 37.453125 38.875 40.71875 
Q 34.671875 45.796875 27.984375 45.796875 
Q 21.921875 45.796875 17.796875 41.75 
Q 13.671875 37.703125 13.234375 30.90625 
z
" id="ArialMT-101"/>
      <path d="M 6.390625 0 
L 6.390625 71.578125 
L 15.1875 71.578125 
L 15.1875 0 
z
" id="ArialMT-108"/>
      <path id="ArialMT-32"/>
      <path d="M 7.328125 0 
L 7.328125 71.578125 
L 16.796875 71.578125 
L 16.796875 8.453125 
L 52.046875 8.453125 
L 52.046875 0 
z
" id="ArialMT-76"/>
      <path d="M 4.984375 -4.296875 
L 13.53125 -5.5625 
Q 14.0625 -9.515625 16.5 -11.328125 
Q 19.78125 -13.765625 25.4375 -13.765625 
Q 31.546875 -13.765625 34.859375 -11.328125 
Q 38.1875 -8.890625 39.359375 -4.5 
Q 40.046875 -1.8125 39.984375 6.78125 
Q 34.234375 0 25.640625 0 
Q 14.9375 0 9.078125 7.71875 
Q 3.21875 15.4375 3.21875 26.21875 
Q 3.21875 33.640625 5.90625 39.90625 
Q 8.59375 46.1875 13.6875 49.609375 
Q 18.796875 53.03125 25.6875 53.03125 
Q 34.859375 53.03125 40.828125 45.609375 
L 40.828125 51.859375 
L 48.921875 51.859375 
L 48.921875 7.03125 
Q 48.921875 -5.078125 46.453125 -10.125 
Q 44 -15.1875 38.640625 -18.109375 
Q 33.296875 -21.046875 25.484375 -21.046875 
Q 16.21875 -21.046875 10.5 -16.875 
Q 4.78125 -12.703125 4.984375 -4.296875 
z
M 12.25 26.859375 
Q 12.25 16.65625 16.296875 11.96875 
Q 20.359375 7.28125 26.46875 7.28125 
Q 32.515625 7.28125 36.609375 11.9375 
Q 40.71875 16.609375 40.71875 26.5625 
Q 40.71875 36.078125 36.5 40.90625 
Q 32.28125 45.75 26.3125 45.75 
Q 20.453125 45.75 16.34375 40.984375 
Q 12.25 36.234375 12.25 26.859375 
z
" id="ArialMT-103"/>
      <path d="M 25.78125 7.859375 
L 27.046875 0.09375 
Q 23.34375 -0.6875 20.40625 -0.6875 
Q 15.625 -0.6875 12.984375 0.828125 
Q 10.359375 2.34375 9.28125 4.8125 
Q 8.203125 7.28125 8.203125 15.1875 
L 8.203125 45.015625 
L 1.765625 45.015625 
L 1.765625 51.859375 
L 8.203125 51.859375 
L 8.203125 64.703125 
L 16.9375 69.96875 
L 16.9375 51.859375 
L 25.78125 51.859375 
L 25.78125 45.015625 
L 16.9375 45.015625 
L 16.9375 14.703125 
Q 16.9375 10.9375 17.40625 9.859375 
Q 17.875 8.796875 18.921875 8.15625 
Q 19.96875 7.515625 21.921875 7.515625 
Q 23.390625 7.515625 25.78125 7.859375 
z
" id="ArialMT-116"/>
      <path d="M 8.890625 0 
L 8.890625 10.015625 
L 18.890625 10.015625 
L 18.890625 0 
Q 18.890625 -5.515625 16.9375 -8.90625 
Q 14.984375 -12.3125 10.75 -14.15625 
L 8.296875 -10.40625 
Q 11.078125 -9.1875 12.390625 -6.8125 
Q 13.71875 -4.4375 13.875 0 
z
" id="ArialMT-44"/>
      <path d="M 40.4375 19 
L 49.078125 17.875 
Q 47.65625 8.9375 41.8125 3.875 
Q 35.984375 -1.171875 27.484375 -1.171875 
Q 16.84375 -1.171875 10.375 5.78125 
Q 3.90625 12.75 3.90625 25.734375 
Q 3.90625 34.125 6.6875 40.421875 
Q 9.46875 46.734375 15.15625 49.875 
Q 20.84375 53.03125 27.546875 53.03125 
Q 35.984375 53.03125 41.359375 48.75 
Q 46.734375 44.484375 48.25 36.625 
L 39.703125 35.296875 
Q 38.484375 40.53125 35.375 43.15625 
Q 32.28125 45.796875 27.875 45.796875 
Q 21.234375 45.796875 17.078125 41.03125 
Q 12.9375 36.28125 12.9375 25.984375 
Q 12.9375 15.53125 16.9375 10.796875 
Q 20.953125 6.0625 27.390625 6.0625 
Q 32.5625 6.0625 36.03125 9.234375 
Q 39.5 12.40625 40.4375 19 
z
" id="ArialMT-99"/>
      <path d="M 6.78125 -19.875 
L 6.78125 71.578125 
L 26.171875 71.578125 
L 26.171875 64.3125 
L 15.578125 64.3125 
L 15.578125 -12.59375 
L 26.171875 -12.59375 
L 26.171875 -19.875 
z
" id="ArialMT-91"/>
      <path d="M 49.703125 51.859375 
L 49.703125 0 
L 41.84375 0 
L 41.84375 6.15625 
Q 39.3125 2.25 36.8125 0.78125 
Q 33.40625 -1.21875 28.859375 -1.21875 
Q 24.8125 -1.21875 21.6875 0.390625 
Q 19.34375 1.609375 16.5 5.21875 
L 16.5 -19.875 
L 7.8125 -19.875 
L 7.8125 51.859375 
L 16.5 51.859375 
L 16.5 29.890625 
Q 16.5 17.921875 17.765625 14.375 
Q 19.046875 10.84375 21.890625 8.78125 
Q 24.75 6.734375 28.46875 6.734375 
Q 32.375 6.734375 35.453125 8.875 
Q 38.53125 11.03125 39.796875 14.421875 
Q 41.0625 17.828125 41.0625 29.734375 
L 41.0625 51.859375 
z
" id="ArialMT-956"/>
      <path d="M 6.59375 0 
L 6.59375 51.859375 
L 14.453125 51.859375 
L 14.453125 44.578125 
Q 16.890625 48.390625 20.9375 50.703125 
Q 25 53.03125 30.171875 53.03125 
Q 35.9375 53.03125 39.625 50.640625 
Q 43.3125 48.25 44.828125 43.953125 
Q 50.984375 53.03125 60.84375 53.03125 
Q 68.5625 53.03125 72.703125 48.75 
Q 76.859375 44.484375 76.859375 35.59375 
L 76.859375 0 
L 68.109375 0 
L 68.109375 32.671875 
Q 68.109375 37.9375 67.25 40.25 
Q 66.40625 42.578125 64.15625 43.984375 
Q 61.921875 45.40625 58.890625 45.40625 
Q 53.421875 45.40625 49.796875 41.765625 
Q 46.1875 38.140625 46.1875 30.125 
L 46.1875 0 
L 37.40625 0 
L 37.40625 33.6875 
Q 37.40625 39.546875 35.25 42.46875 
Q 33.109375 45.40625 28.21875 45.40625 
Q 24.515625 45.40625 21.359375 43.453125 
Q 18.21875 41.5 16.796875 37.734375 
Q 15.375 33.984375 15.375 26.90625 
L 15.375 0 
z
" id="ArialMT-109"/>
      <path d="M 21.296875 -19.875 
L 1.90625 -19.875 
L 1.90625 -12.59375 
L 12.5 -12.59375 
L 12.5 64.3125 
L 1.90625 64.3125 
L 1.90625 71.578125 
L 21.296875 71.578125 
z
" id="ArialMT-93"/>
     </defs>
     <g transform="translate(98.455 198.5)scale(0.1 -0.1)">
      <use transform="translate(0 0.203125)" xlink:href="#ArialMT-67"/>
      <use transform="translate(72.216797 0.203125)" xlink:href="#ArialMT-104"/>
      <use transform="translate(127.832031 0.203125)" xlink:href="#ArialMT-97"/>
      <use transform="translate(183.447266 0.203125)" xlink:href="#ArialMT-110"/>
      <use transform="translate(239.0625 0.203125)" xlink:href="#ArialMT-110"/>
      <use transform="translate(294.677734 0.203125)" xlink:href="#ArialMT-101"/>
      <use transform="translate(350.292969 0.203125)" xlink:href="#ArialMT-108"/>
      <use transform="translate(372.509766 0.203125)" xlink:href="#ArialMT-32"/>
      <use transform="translate(400.292969 0.203125)" xlink:href="#ArialMT-76"/>
      <use transform="translate(455.908203 0.203125)" xlink:href="#ArialMT-101"/>
      <use transform="translate(511.523438 0.203125)" xlink:href="#ArialMT-110"/>
      <use transform="translate(567.138672 0.203125)" xlink:href="#ArialMT-103"/>
      <use transform="translate(622.753906 0.203125)" xlink:href="#ArialMT-116"/>
      <use transform="translate(650.537109 0.203125)" xlink:href="#ArialMT-104"/>
      <use transform="translate(706.152344 0.203125)" xlink:href="#ArialMT-44"/>
      <use transform="translate(733.935547 0.203125)" xlink:href="#ArialMT-32"/>
      <use transform="translate(761.71875 0.203125)" xlink:href="#ArialMT-32"/>
      <use transform="translate(789.501953 0.203125)" xlink:href="#ArialMT-76"/>
      <use transform="translate(846.859531 -29.665625)scale(0.7)" xlink:href="#ArialMT-99"/>
      <use transform="translate(881.859531 -29.665625)scale(0.7)" xlink:href="#ArialMT-104"/>
      <use transform="translate(925.76832 0.203125)" xlink:href="#ArialMT-32"/>
      <use transform="translate(953.551523 0.203125)" xlink:href="#ArialMT-32"/>
      <use transform="translate(981.334727 0.203125)" xlink:href="#ArialMT-91"/>
      <use transform="translate(1009.11793 0.203125)" xlink:href="#ArialMT-956"/>
      <use transform="translate(1066.735117 0.203125)" xlink:href="#ArialMT-109"/>
      <use transform="translate(1150.035898 0.203125)" xlink:href="#ArialMT-93"/>
     </g>
    </g>
   </g>
   <g id="matplotlib.axis_2">
    <g id="ytick_1">
     <g id="line2d_6">
      <defs>
       <path d="M 0 0 
L -3.5 0 
" id="mfe18d2bf6b" style="stroke:#000000;stroke-width:0.8;"/>
      </defs>
      <g>
       <use style="stroke:#000000;stroke-width:0.8;" x="41.11" xlink:href="#mfe18d2bf6b" y="171.969219"/>
      </g>
     </g>
     <g id="text_7">
      <!-- 0.0 -->
      <defs>
       <path d="M 9.078125 0 
L 9.078125 10.015625 
L 19.09375 10.015625 
L 19.09375 0 
z
" id="ArialMT-46"/>
      </defs>
      <g transform="translate(21.6 175.190234)scale(0.09 -0.09)">
       <use xlink:href="#ArialMT-48"/>
       <use x="55.615234" xlink:href="#ArialMT-46"/>
       <use x="83.398438" xlink:href="#ArialMT-48"/>
      </g>
     </g>
    </g>
    <g id="ytick_2">
     <g id="line2d_7">
      <g>
       <use style="stroke:#000000;stroke-width:0.8;" x="41.11" xlink:href="#mfe18d2bf6b" y="140.959398"/>
      </g>
     </g>
     <g id="text_8">
      <!-- 0.2 -->
      <g transform="translate(21.6 144.180414)scale(0.09 -0.09)">
       <use xlink:href="#ArialMT-48"/>
       <use x="55.615234" xlink:href="#ArialMT-46"/>
       <use x="83.398438" xlink:href="#ArialMT-50"/>
      </g>
     </g>
    </g>
    <g id="ytick_3">
     <g id="line2d_8">
      <g>
       <use style="stroke:#000000;stroke-width:0.8;" x="41.11" xlink:href="#mfe18d2bf6b" y="109.949577"/>
      </g>
     </g>
     <g id="text_9">
      <!-- 0.4 -->
      <defs>
       <path d="M 32.328125 0 
L 32.328125 17.140625 
L 1.265625 17.140625 
L 1.265625 25.203125 
L 33.9375 71.578125 
L 41.109375 71.578125 
L 41.109375 25.203125 
L 50.78125 25.203125 
L 50.78125 17.140625 
L 41.109375 17.140625 
L 41.109375 0 
z
M 32.328125 25.203125 
L 32.328125 57.46875 
L 9.90625 25.203125 
z
" id="ArialMT-52"/>
      </defs>
      <g transform="translate(21.6 113.170593)scale(0.09 -0.09)">
       <use xlink:href="#ArialMT-48"/>
       <use x="55.615234" xlink:href="#ArialMT-46"/>
       <use x="83.398438" xlink:href="#ArialMT-52"/>
      </g>
     </g>
    </g>
    <g id="ytick_4">
     <g id="line2d_9">
      <g>
       <use style="stroke:#000000;stroke-width:0.8;" x="41.11" xlink:href="#mfe18d2bf6b" y="78.939756"/>
      </g>
     </g>
     <g id="text_10">
      <!-- 0.6 -->
      <defs>
       <path d="M 49.75 54.046875 
L 41.015625 53.375 
Q 39.84375 58.546875 37.703125 60.890625 
Q 34.125 64.65625 28.90625 64.65625 
Q 24.703125 64.65625 21.53125 62.3125 
Q 17.390625 59.28125 14.984375 53.46875 
Q 12.59375 47.65625 12.5 36.921875 
Q 15.671875 41.75 20.265625 44.09375 
Q 24.859375 46.4375 29.890625 46.4375 
Q 38.671875 46.4375 44.84375 39.96875 
Q 51.03125 33.5 51.03125 23.25 
Q 51.03125 16.5 48.125 10.71875 
Q 45.21875 4.9375 40.140625 1.859375 
Q 35.0625 -1.21875 28.609375 -1.21875 
Q 17.625 -1.21875 10.6875 6.859375 
Q 3.765625 14.9375 3.765625 33.5 
Q 3.765625 54.25 11.421875 63.671875 
Q 18.109375 71.875 29.4375 71.875 
Q 37.890625 71.875 43.28125 67.140625 
Q 48.6875 62.40625 49.75 54.046875 
z
M 13.875 23.1875 
Q 13.875 18.65625 15.796875 14.5 
Q 17.71875 10.359375 21.1875 8.171875 
Q 24.65625 6 28.46875 6 
Q 34.03125 6 38.03125 10.484375 
Q 42.046875 14.984375 42.046875 22.703125 
Q 42.046875 30.125 38.078125 34.390625 
Q 34.125 38.671875 28.125 38.671875 
Q 22.171875 38.671875 18.015625 34.390625 
Q 13.875 30.125 13.875 23.1875 
z
" id="ArialMT-54"/>
      </defs>
      <g transform="translate(21.6 82.160772)scale(0.09 -0.09)">
       <use xlink:href="#ArialMT-48"/>
       <use x="55.615234" xlink:href="#ArialMT-46"/>
       <use x="83.398438" xlink:href="#ArialMT-54"/>
      </g>
     </g>
    </g>
    <g id="ytick_5">
     <g id="line2d_10">
      <g>
       <use style="stroke:#000000;stroke-width:0.8;" x="41.11" xlink:href="#mfe18d2bf6b" y="47.929936"/>
      </g>
     </g>
     <g id="text_11">
      <!-- 0.8 -->
      <defs>
       <path d="M 17.671875 38.8125 
Q 12.203125 40.828125 9.5625 44.53125 
Q 6.9375 48.25 6.9375 53.421875 
Q 6.9375 61.234375 12.546875 66.546875 
Q 18.171875 71.875 27.484375 71.875 
Q 36.859375 71.875 42.578125 66.421875 
Q 48.296875 60.984375 48.296875 53.171875 
Q 48.296875 48.1875 45.671875 44.5 
Q 43.0625 40.828125 37.75 38.8125 
Q 44.34375 36.671875 47.78125 31.875 
Q 51.21875 27.09375 51.21875 20.453125 
Q 51.21875 11.28125 44.71875 5.03125 
Q 38.234375 -1.21875 27.640625 -1.21875 
Q 17.046875 -1.21875 10.546875 5.046875 
Q 4.046875 11.328125 4.046875 20.703125 
Q 4.046875 27.6875 7.59375 32.390625 
Q 11.140625 37.109375 17.671875 38.8125 
z
M 15.921875 53.71875 
Q 15.921875 48.640625 19.1875 45.40625 
Q 22.46875 42.1875 27.6875 42.1875 
Q 32.765625 42.1875 36.015625 45.375 
Q 39.265625 48.578125 39.265625 53.21875 
Q 39.265625 58.0625 35.90625 61.359375 
Q 32.5625 64.65625 27.59375 64.65625 
Q 22.5625 64.65625 19.234375 61.421875 
Q 15.921875 58.203125 15.921875 53.71875 
z
M 13.09375 20.65625 
Q 13.09375 16.890625 14.875 13.375 
Q 16.65625 9.859375 20.171875 7.921875 
Q 23.6875 6 27.734375 6 
Q 34.03125 6 38.125 10.046875 
Q 42.234375 14.109375 42.234375 20.359375 
Q 42.234375 26.703125 38.015625 30.859375 
Q 33.796875 35.015625 27.4375 35.015625 
Q 21.234375 35.015625 17.15625 30.90625 
Q 13.09375 26.8125 13.09375 20.65625 
z
" id="ArialMT-56"/>
      </defs>
      <g transform="translate(21.6 51.150951)scale(0.09 -0.09)">
       <use xlink:href="#ArialMT-48"/>
       <use x="55.615234" xlink:href="#ArialMT-46"/>
       <use x="83.398438" xlink:href="#ArialMT-56"/>
      </g>
     </g>
    </g>
    <g id="ytick_6">
     <g id="line2d_11">
      <g>
       <use style="stroke:#000000;stroke-width:0.8;" x="41.11" xlink:href="#mfe18d2bf6b" y="16.920115"/>
      </g>
     </g>
     <g id="text_12">
      <!-- 1.0 -->
      <g transform="translate(21.6 20.141131)scale(0.09 -0.09)">
       <use xlink:href="#ArialMT-49"/>
       <use x="55.615234" xlink:href="#ArialMT-46"/>
       <use x="83.398438" xlink:href="#ArialMT-48"/>
      </g>
     </g>
    </g>
    <g id="text_13">
     <!-- Total Resistance, $R_{tot}$ [k$\Omega.\mu $m] -->
     <defs>
      <path d="M 25.921875 0 
L 25.921875 63.140625 
L 2.34375 63.140625 
L 2.34375 71.578125 
L 59.078125 71.578125 
L 59.078125 63.140625 
L 35.40625 63.140625 
L 35.40625 0 
z
" id="ArialMT-84"/>
      <path d="M 3.328125 25.921875 
Q 3.328125 40.328125 11.328125 47.265625 
Q 18.015625 53.03125 27.640625 53.03125 
Q 38.328125 53.03125 45.109375 46.015625 
Q 51.90625 39.015625 51.90625 26.65625 
Q 51.90625 16.65625 48.90625 10.90625 
Q 45.90625 5.171875 40.15625 2 
Q 34.421875 -1.171875 27.640625 -1.171875 
Q 16.75 -1.171875 10.03125 5.8125 
Q 3.328125 12.796875 3.328125 25.921875 
z
M 12.359375 25.921875 
Q 12.359375 15.96875 16.703125 11.015625 
Q 21.046875 6.0625 27.640625 6.0625 
Q 34.1875 6.0625 38.53125 11.03125 
Q 42.875 16.015625 42.875 26.21875 
Q 42.875 35.84375 38.5 40.796875 
Q 34.125 45.75 27.640625 45.75 
Q 21.046875 45.75 16.703125 40.8125 
Q 12.359375 35.890625 12.359375 25.921875 
z
" id="ArialMT-111"/>
      <path d="M 7.859375 0 
L 7.859375 71.578125 
L 39.59375 71.578125 
Q 49.171875 71.578125 54.140625 69.640625 
Q 59.125 67.71875 62.109375 62.828125 
Q 65.09375 57.953125 65.09375 52.046875 
Q 65.09375 44.4375 60.15625 39.203125 
Q 55.21875 33.984375 44.921875 32.5625 
Q 48.6875 30.765625 50.640625 29 
Q 54.78125 25.203125 58.5 19.484375 
L 70.953125 0 
L 59.03125 0 
L 49.5625 14.890625 
Q 45.40625 21.34375 42.71875 24.75 
Q 40.046875 28.171875 37.921875 29.53125 
Q 35.796875 30.90625 33.59375 31.453125 
Q 31.984375 31.78125 28.328125 31.78125 
L 17.328125 31.78125 
L 17.328125 0 
z
M 17.328125 39.984375 
L 37.703125 39.984375 
Q 44.1875 39.984375 47.84375 41.328125 
Q 51.515625 42.671875 53.421875 45.625 
Q 55.328125 48.578125 55.328125 52.046875 
Q 55.328125 57.125 51.640625 60.390625 
Q 47.953125 63.671875 39.984375 63.671875 
L 17.328125 63.671875 
z
" id="ArialMT-82"/>
      <path d="M 3.078125 15.484375 
L 11.765625 16.84375 
Q 12.5 11.625 15.84375 8.84375 
Q 19.1875 6.0625 25.203125 6.0625 
Q 31.25 6.0625 34.171875 8.515625 
Q 37.109375 10.984375 37.109375 14.3125 
Q 37.109375 17.28125 34.515625 19 
Q 32.71875 20.171875 25.53125 21.96875 
Q 15.875 24.421875 12.140625 26.203125 
Q 8.40625 27.984375 6.46875 31.125 
Q 4.546875 34.28125 4.546875 38.09375 
Q 4.546875 41.546875 6.125 44.5 
Q 7.71875 47.46875 10.453125 49.421875 
Q 12.5 50.921875 16.03125 51.96875 
Q 19.578125 53.03125 23.640625 53.03125 
Q 29.734375 53.03125 34.34375 51.265625 
Q 38.96875 49.515625 41.15625 46.5 
Q 43.359375 43.5 44.1875 38.484375 
L 35.59375 37.3125 
Q 35.015625 41.3125 32.203125 43.546875 
Q 29.390625 45.796875 24.265625 45.796875 
Q 18.21875 45.796875 15.625 43.796875 
Q 13.03125 41.796875 13.03125 39.109375 
Q 13.03125 37.40625 14.109375 36.03125 
Q 15.1875 34.625 17.484375 33.6875 
Q 18.796875 33.203125 25.25 31.453125 
Q 34.578125 28.953125 38.25 27.359375 
Q 41.9375 25.78125 44.03125 22.75 
Q 46.140625 19.734375 46.140625 15.234375 
Q 46.140625 10.84375 43.578125 6.953125 
Q 41.015625 3.078125 36.171875 0.953125 
Q 31.34375 -1.171875 25.25 -1.171875 
Q 15.140625 -1.171875 9.84375 3.03125 
Q 4.546875 7.234375 3.078125 15.484375 
z
" id="ArialMT-115"/>
      <path d="M 6.640625 61.46875 
L 6.640625 71.578125 
L 15.4375 71.578125 
L 15.4375 61.46875 
z
M 6.640625 0 
L 6.640625 51.859375 
L 15.4375 51.859375 
L 15.4375 0 
z
" id="ArialMT-105"/>
      <path d="M 6.640625 0 
L 6.640625 71.578125 
L 15.4375 71.578125 
L 15.4375 30.765625 
L 36.234375 51.859375 
L 47.609375 51.859375 
L 27.78125 32.625 
L 49.609375 0 
L 38.765625 0 
L 21.625 26.515625 
L 15.4375 20.5625 
L 15.4375 0 
z
" id="ArialMT-107"/>
      <path d="M 4.734375 8.453125 
L 20.359375 8.453125 
Q 5.515625 20.84375 5.515625 38.71875 
Q 5.515625 48.4375 9.421875 56.15625 
Q 13.328125 63.875 20.453125 68.328125 
Q 27.59375 72.796875 37.59375 72.796875 
Q 47.515625 72.796875 54.125 68.6875 
Q 60.75 64.59375 65.015625 56.921875 
Q 69.28125 49.265625 69.28125 38.71875 
Q 69.28125 20.84375 54.4375 8.453125 
L 70.0625 8.453125 
L 70.0625 0 
L 42.234375 0 
L 42.234375 7.90625 
Q 59.625 16.015625 59.625 37.25 
Q 59.625 49.21875 53.484375 56.953125 
Q 47.359375 64.703125 37.546875 64.703125 
Q 27.4375 64.703125 21.375 56.90625 
Q 15.328125 49.125 15.328125 37.75 
Q 15.328125 16.21875 32.625 7.90625 
L 32.625 0 
L 4.734375 0 
z
" id="ArialMT-937"/>
     </defs>
     <g transform="translate(14.5 157.134609)rotate(-90)scale(0.1 -0.1)">
      <use transform="translate(0 0.203125)" xlink:href="#ArialMT-84"/>
      <use transform="translate(61.083984 0.203125)" xlink:href="#ArialMT-111"/>
      <use transform="translate(116.699219 0.203125)" xlink:href="#ArialMT-116"/>
      <use transform="translate(144.482422 0.203125)" xlink:href="#ArialMT-97"/>
      <use transform="translate(200.097656 0.203125)" xlink:href="#ArialMT-108"/>
      <use transform="translate(222.314453 0.203125)" xlink:href="#ArialMT-32"/>
      <use transform="translate(250.097656 0.203125)" xlink:href="#ArialMT-82"/>
      <use transform="translate(322.314453 0.203125)" xlink:href="#ArialMT-101"/>
      <use transform="translate(377.929688 0.203125)" xlink:href="#ArialMT-115"/>
      <use transform="translate(427.929688 0.203125)" xlink:href="#ArialMT-105"/>
      <use transform="translate(450.146484 0.203125)" xlink:href="#ArialMT-115"/>
      <use transform="translate(500.146484 0.203125)" xlink:href="#ArialMT-116"/>
      <use transform="translate(527.929688 0.203125)" xlink:href="#ArialMT-97"/>
      <use transform="translate(583.544922 0.203125)" xlink:href="#ArialMT-110"/>
      <use transform="translate(639.160156 0.203125)" xlink:href="#ArialMT-99"/>
      <use transform="translate(689.160156 0.203125)" xlink:href="#ArialMT-101"/>
      <use transform="translate(744.775391 0.203125)" xlink:href="#ArialMT-44"/>
      <use transform="translate(772.558594 0.203125)" xlink:href="#ArialMT-32"/>
      <use transform="translate(800.341797 0.203125)" xlink:href="#ArialMT-82"/>
      <use transform="translate(874.300938 -29.665625)scale(0.7)" xlink:href="#ArialMT-116"/>
      <use transform="translate(893.74918 -29.665625)scale(0.7)" xlink:href="#ArialMT-111"/>
      <use transform="translate(932.679844 -29.665625)scale(0.7)" xlink:href="#ArialMT-116"/>
      <use transform="translate(957.106211 0.203125)" xlink:href="#ArialMT-32"/>
      <use transform="translate(984.889414 0.203125)" xlink:href="#ArialMT-91"/>
      <use transform="translate(1012.672617 0.203125)" xlink:href="#ArialMT-107"/>
      <use transform="translate(1062.672617 0.203125)" xlink:href="#ArialMT-937"/>
      <use transform="translate(1137.428477 0.203125)" xlink:href="#ArialMT-46"/>
      <use transform="translate(1181.871836 0.203125)" xlink:href="#ArialMT-956"/>
      <use transform="translate(1239.489023 0.203125)" xlink:href="#ArialMT-109"/>
      <use transform="translate(1322.789805 0.203125)" xlink:href="#ArialMT-93"/>
     </g>
    </g>
   </g>
   <g id="line2d_12">
    <path clip-path="url(#p8db1e42aba)" d="M 41.11 164.737982 
L 43.458384 163.289719 
L 45.806768 161.841456 
L 48.155152 160.393193 
L 50.503535 158.94493 
L 52.851919 157.496667 
L 55.200303 156.048405 
L 57.548687 154.600142 
L 59.897071 153.151879 
L 62.245455 151.703616 
L 64.593838 150.255353 
L 66.942222 148.80709 
L 69.290606 147.358828 
L 71.63899 145.910565 
L 73.987374 144.462302 
L 76.335758 143.014039 
L 78.684141 141.565776 
L 81.032525 140.117513 
L 83.380909 138.669251 
L 85.729293 137.220988 
L 88.077677 135.772725 
L 90.426061 134.324462 
L 92.774444 132.876199 
L 95.122828 131.427936 
L 97.471212 129.979674 
L 99.819596 128.531411 
L 102.16798 127.083148 
L 104.516364 125.634885 
L 106.864747 124.186622 
L 109.213131 122.738359 
L 111.561515 121.290097 
L 113.909899 119.841834 
L 116.258283 118.393571 
L 118.606667 116.945308 
L 120.955051 115.497045 
L 123.303434 114.048782 
L 125.651818 112.60052 
L 128.000202 111.152257 
L 130.348586 109.703994 
L 132.69697 108.255731 
L 135.045354 106.807468 
L 137.393737 105.359205 
L 139.742121 103.910943 
L 142.090505 102.46268 
L 144.438889 101.014417 
L 146.787273 99.566154 
L 149.135657 98.117891 
L 151.48404 96.669628 
L 153.832424 95.221366 
L 156.180808 93.773103 
L 158.529192 92.32484 
L 160.877576 90.876577 
L 163.22596 89.428314 
L 165.574343 87.980051 
L 167.922727 86.531789 
L 170.271111 85.083526 
L 172.619495 83.635263 
L 174.967879 82.187 
L 177.316263 80.738737 
L 179.664646 79.290474 
L 182.01303 77.842212 
L 184.361414 76.393949 
L 186.709798 74.945686 
L 189.058182 73.497423 
L 191.406566 72.04916 
L 193.754949 70.600897 
L 196.103333 69.152635 
L 198.451717 67.704372 
L 200.800101 66.256109 
L 203.148485 64.807846 
L 205.496869 63.359583 
L 207.845253 61.91132 
L 210.193636 60.463058 
L 212.54202 59.014795 
L 214.890404 57.566532 
L 217.238788 56.118269 
L 219.587172 54.670006 
L 221.935556 53.221743 
L 224.283939 51.773481 
L 226.632323 50.325218 
L 228.980707 48.876955 
L 231.329091 47.428692 
L 233.677475 45.980429 
L 236.025859 44.532166 
L 238.374242 43.083904 
L 240.722626 41.635641 
L 243.07101 40.187378 
L 245.419394 38.739115 
L 247.767778 37.290852 
L 250.116162 35.842589 
L 252.464545 34.394327 
L 254.812929 32.946064 
L 257.161313 31.497801 
L 259.509697 30.049538 
L 261.858081 28.601275 
L 264.206465 27.153012 
L 266.554848 25.70475 
L 268.903232 24.256487 
L 271.251616 22.808224 
L 273.6 21.359961 
" style="fill:none;stroke:#003fff;stroke-linecap:square;stroke-width:1.5;"/>
   </g>
   <g id="patch_3">
    <path d="M 41.11 171.969219 
L 41.11 7.2 
" style="fill:none;stroke:#000000;stroke-linecap:square;stroke-linejoin:miter;stroke-width:0.8;"/>
   </g>
   <g id="patch_4">
    <path d="M 273.6 171.969219 
L 273.6 7.2 
" style="fill:none;stroke:#000000;stroke-linecap:square;stroke-linejoin:miter;stroke-width:0.8;"/>
   </g>
   <g id="patch_5">
    <path d="M 41.11 171.969219 
L 273.6 171.969219 
" style="fill:none;stroke:#000000;stroke-linecap:square;stroke-linejoin:miter;stroke-width:0.8;"/>
   </g>
   <g id="patch_6">
    <path d="M 41.11 7.2 
L 273.6 7.2 
" style="fill:none;stroke:#000000;stroke-linecap:square;stroke-linejoin:miter;stroke-width:0.8;"/>
   </g>
   <g id="text_14">
    <!-- $R_{C}$ = 0.02 $\pm$ 0.01 $\Omega$.$\mu$m -->
    <defs>
     <path d="M 52.828125 42.09375 
L 5.5625 42.09375 
L 5.5625 50.296875 
L 52.828125 50.296875 
z
M 52.828125 20.359375 
L 5.5625 20.359375 
L 5.5625 28.5625 
L 52.828125 28.5625 
z
" id="ArialMT-61"/>
     <path d="M 23.296875 12.703125 
L 23.296875 32.375 
L 3.8125 32.375 
L 3.8125 40.53125 
L 23.296875 40.53125 
L 23.296875 60.015625 
L 31.59375 60.015625 
L 31.59375 40.53125 
L 51.078125 40.53125 
L 51.078125 32.375 
L 31.59375 32.375 
L 31.59375 12.703125 
z
M 51.078125 0 
L 3.8125 0 
L 3.8125 8.203125 
L 51.078125 8.203125 
z
" id="ArialMT-177"/>
    </defs>
    <g transform="translate(52.7345 31.915383)scale(0.1 -0.1)">
     <use transform="translate(0 0.203125)" xlink:href="#ArialMT-82"/>
     <use transform="translate(73.959141 -29.665625)scale(0.7)" xlink:href="#ArialMT-67"/>
     <use transform="translate(129.489023 0.203125)" xlink:href="#ArialMT-32"/>
     <use transform="translate(157.272227 0.203125)" xlink:href="#ArialMT-61"/>
     <use transform="translate(215.670664 0.203125)" xlink:href="#ArialMT-32"/>
     <use transform="translate(243.453867 0.203125)" xlink:href="#ArialMT-48"/>
     <use transform="translate(299.069102 0.203125)" xlink:href="#ArialMT-46"/>
     <use transform="translate(326.852305 0.203125)" xlink:href="#ArialMT-48"/>
     <use transform="translate(382.467539 0.203125)" xlink:href="#ArialMT-50"/>
     <use transform="translate(438.082773 0.203125)" xlink:href="#ArialMT-32"/>
     <use transform="translate(465.865977 0.203125)" xlink:href="#ArialMT-177"/>
     <use transform="translate(520.748789 0.203125)" xlink:href="#ArialMT-32"/>
     <use transform="translate(548.531992 0.203125)" xlink:href="#ArialMT-48"/>
     <use transform="translate(604.147227 0.203125)" xlink:href="#ArialMT-46"/>
     <use transform="translate(631.93043 0.203125)" xlink:href="#ArialMT-48"/>
     <use transform="translate(687.545664 0.203125)" xlink:href="#ArialMT-49"/>
     <use transform="translate(743.160898 0.203125)" xlink:href="#ArialMT-32"/>
     <use transform="translate(770.944102 0.203125)" xlink:href="#ArialMT-937"/>
     <use transform="translate(845.699961 0.203125)" xlink:href="#ArialMT-46"/>
     <use transform="translate(873.483164 0.203125)" xlink:href="#ArialMT-956"/>
     <use transform="translate(931.100352 0.203125)" xlink:href="#ArialMT-109"/>
    </g>
   </g>
   <g id="text_15">
    <!-- R-squared = 0.997 -->
    <defs>
     <path d="M 3.171875 21.484375 
L 3.171875 30.328125 
L 30.171875 30.328125 
L 30.171875 21.484375 
z
" id="ArialMT-45"/>
     <path d="M 39.65625 -19.875 
L 39.65625 5.515625 
Q 37.59375 2.640625 33.90625 0.734375 
Q 30.21875 -1.171875 26.078125 -1.171875 
Q 16.84375 -1.171875 10.171875 6.203125 
Q 3.515625 13.578125 3.515625 26.421875 
Q 3.515625 34.234375 6.21875 40.421875 
Q 8.9375 46.625 14.078125 49.828125 
Q 19.234375 53.03125 25.390625 53.03125 
Q 35.015625 53.03125 40.53125 44.921875 
L 40.53125 51.859375 
L 48.4375 51.859375 
L 48.4375 -19.875 
z
M 12.546875 26.078125 
Q 12.546875 16.0625 16.75 11.0625 
Q 20.953125 6.0625 26.8125 6.0625 
Q 32.421875 6.0625 36.46875 10.8125 
Q 40.53125 15.578125 40.53125 25.296875 
Q 40.53125 35.640625 36.25 40.859375 
Q 31.984375 46.09375 26.21875 46.09375 
Q 20.515625 46.09375 16.53125 41.234375 
Q 12.546875 36.375 12.546875 26.078125 
z
" id="ArialMT-113"/>
     <path d="M 40.578125 0 
L 40.578125 7.625 
Q 34.515625 -1.171875 24.125 -1.171875 
Q 19.53125 -1.171875 15.546875 0.578125 
Q 11.578125 2.34375 9.640625 5 
Q 7.71875 7.671875 6.9375 11.53125 
Q 6.390625 14.109375 6.390625 19.734375 
L 6.390625 51.859375 
L 15.1875 51.859375 
L 15.1875 23.09375 
Q 15.1875 16.21875 15.71875 13.8125 
Q 16.546875 10.359375 19.234375 8.375 
Q 21.921875 6.390625 25.875 6.390625 
Q 29.828125 6.390625 33.296875 8.421875 
Q 36.765625 10.453125 38.203125 13.9375 
Q 39.65625 17.4375 39.65625 24.078125 
L 39.65625 51.859375 
L 48.4375 51.859375 
L 48.4375 0 
z
" id="ArialMT-117"/>
     <path d="M 6.5 0 
L 6.5 51.859375 
L 14.40625 51.859375 
L 14.40625 44 
Q 17.4375 49.515625 20 51.265625 
Q 22.5625 53.03125 25.640625 53.03125 
Q 30.078125 53.03125 34.671875 50.203125 
L 31.640625 42.046875 
Q 28.421875 43.953125 25.203125 43.953125 
Q 22.3125 43.953125 20.015625 42.21875 
Q 17.71875 40.484375 16.75 37.40625 
Q 15.28125 32.71875 15.28125 27.15625 
L 15.28125 0 
z
" id="ArialMT-114"/>
     <path d="M 40.234375 0 
L 40.234375 6.546875 
Q 35.296875 -1.171875 25.734375 -1.171875 
Q 19.53125 -1.171875 14.328125 2.25 
Q 9.125 5.671875 6.265625 11.796875 
Q 3.421875 17.921875 3.421875 25.875 
Q 3.421875 33.640625 6 39.96875 
Q 8.59375 46.296875 13.765625 49.65625 
Q 18.953125 53.03125 25.34375 53.03125 
Q 30.03125 53.03125 33.6875 51.046875 
Q 37.359375 49.078125 39.65625 45.90625 
L 39.65625 71.578125 
L 48.390625 71.578125 
L 48.390625 0 
z
M 12.453125 25.875 
Q 12.453125 15.921875 16.640625 10.984375 
Q 20.84375 6.0625 26.5625 6.0625 
Q 32.328125 6.0625 36.34375 10.765625 
Q 40.375 15.484375 40.375 25.140625 
Q 40.375 35.796875 36.265625 40.765625 
Q 32.171875 45.75 26.171875 45.75 
Q 20.3125 45.75 16.375 40.96875 
Q 12.453125 36.1875 12.453125 25.875 
z
" id="ArialMT-100"/>
     <path d="M 5.46875 16.546875 
L 13.921875 17.328125 
Q 14.984375 11.375 18.015625 8.6875 
Q 21.046875 6 25.78125 6 
Q 29.828125 6 32.875 7.859375 
Q 35.9375 9.71875 37.890625 12.8125 
Q 39.84375 15.921875 41.15625 21.1875 
Q 42.484375 26.46875 42.484375 31.9375 
Q 42.484375 32.515625 42.4375 33.6875 
Q 39.796875 29.5 35.234375 26.875 
Q 30.671875 24.265625 25.34375 24.265625 
Q 16.453125 24.265625 10.296875 30.703125 
Q 4.15625 37.15625 4.15625 47.703125 
Q 4.15625 58.59375 10.578125 65.234375 
Q 17 71.875 26.65625 71.875 
Q 33.640625 71.875 39.421875 68.109375 
Q 45.21875 64.359375 48.21875 57.390625 
Q 51.21875 50.4375 51.21875 37.25 
Q 51.21875 23.53125 48.234375 15.40625 
Q 45.265625 7.28125 39.375 3.03125 
Q 33.5 -1.21875 25.59375 -1.21875 
Q 17.1875 -1.21875 11.859375 3.4375 
Q 6.546875 8.109375 5.46875 16.546875 
z
M 41.453125 48.140625 
Q 41.453125 55.71875 37.421875 60.15625 
Q 33.40625 64.59375 27.734375 64.59375 
Q 21.875 64.59375 17.53125 59.8125 
Q 13.1875 55.03125 13.1875 47.40625 
Q 13.1875 40.578125 17.3125 36.296875 
Q 21.4375 32.03125 27.484375 32.03125 
Q 33.59375 32.03125 37.515625 36.296875 
Q 41.453125 40.578125 41.453125 48.140625 
z
" id="ArialMT-57"/>
     <path d="M 4.734375 62.203125 
L 4.734375 70.65625 
L 51.078125 70.65625 
L 51.078125 63.8125 
Q 44.234375 56.546875 37.515625 44.484375 
Q 30.8125 32.421875 27.15625 19.671875 
Q 24.515625 10.6875 23.78125 0 
L 14.75 0 
Q 14.890625 8.453125 18.0625 20.40625 
Q 21.234375 32.375 27.171875 43.484375 
Q 33.109375 54.59375 39.796875 62.203125 
z
" id="ArialMT-55"/>
    </defs>
    <g transform="translate(180.604 155.492297)scale(0.085 -0.085)">
     <use xlink:href="#ArialMT-82"/>
     <use x="72.216797" xlink:href="#ArialMT-45"/>
     <use x="105.517578" xlink:href="#ArialMT-115"/>
     <use x="155.517578" xlink:href="#ArialMT-113"/>
     <use x="211.132812" xlink:href="#ArialMT-117"/>
     <use x="266.748047" xlink:href="#ArialMT-97"/>
     <use x="322.363281" xlink:href="#ArialMT-114"/>
     <use x="355.664062" xlink:href="#ArialMT-101"/>
     <use x="411.279297" xlink:href="#ArialMT-100"/>
     <use x="466.894531" xlink:href="#ArialMT-32"/>
     <use x="494.677734" xlink:href="#ArialMT-61"/>
     <use x="553.076172" xlink:href="#ArialMT-32"/>
     <use x="580.859375" xlink:href="#ArialMT-48"/>
     <use x="636.474609" xlink:href="#ArialMT-46"/>
     <use x="664.257812" xlink:href="#ArialMT-57"/>
     <use x="719.873047" xlink:href="#ArialMT-57"/>
     <use x="775.488281" xlink:href="#ArialMT-55"/>
    </g>
   </g>
  </g>
 </g>
 <defs>
  <clipPath id="p8db1e42aba">
   <rect height="164.769219" width="232.49" x="41.11" y="7.2"/>
  </clipPath>
 </defs>
</svg>
